<svg id="Layer_1" data-name="Layer 1" xmlns="http://www.w3.org/2000/svg" viewBox="0 0 220.14 230.7"><defs><style>.cls-1{fill:#434343;}.cls-2{fill:#231f20;}</style></defs><path class="cls-1" d="M110.07,87.59V74.27l10.3,1.08v13l-10.3-.73m31.21,2.21V77.54l24.4,2.55V91.52l-24.4-1.72m40.77,2.88V81.8l19.35,2V94l-19.35-1.36m-51.12.79a3.11,3.11,0,0,0-.7-1.65c-.42-.61-1-1.27-1.55-2a13.92,13.92,0,0,1-1.57-2.37,6.13,6.13,0,0,1-.71-2.78,11,11,0,0,1,.1-1.54,8.67,8.67,0,0,1,.31-1.4,8.2,8.2,0,0,1,.47-1.24,6.21,6.21,0,0,1,.62-1c0-.16,0-.34,0-.52s0-.39,0-.59,0-.43,0-.65,0-.47,0-.73a3.77,3.77,0,0,1,.49-1.82,7.85,7.85,0,0,1,1.08-1.44c.39-.43.78-.82,1.07-1.18a1.77,1.77,0,0,0,.48-1,2.29,2.29,0,0,0,.49,1.16c.28.43.67.9,1.05,1.41a9.77,9.77,0,0,1,1.06,1.66,4.41,4.41,0,0,1,.47,1.9v.7c0,.23,0,.44,0,.64s0,.39,0,.56,0,.35,0,.5a8.77,8.77,0,0,1,.61,1.14,11.66,11.66,0,0,1,.46,1.3,12.92,12.92,0,0,1,.29,1.43,11,11,0,0,1,.1,1.53,5.47,5.47,0,0,1-.68,2.61,12.15,12.15,0,0,1-1.52,2.12c-.55.64-1.11,1.22-1.53,1.77a2.73,2.73,0,0,0-.7,1.56M174.06,96a2.9,2.9,0,0,0-.54-1.46c-.33-.53-.77-1.11-1.21-1.75a12.43,12.43,0,0,1-1.23-2.07,6.1,6.1,0,0,1-.55-2.45,10.19,10.19,0,0,1,.08-1.37,9.4,9.4,0,0,1,.23-1.24,10.12,10.12,0,0,1,.37-1.1,7.25,7.25,0,0,1,.49-.92c0-.14,0-.3,0-.46s0-.34,0-.52,0-.38,0-.58v-.63a3.65,3.65,0,0,1,.38-1.62,7.35,7.35,0,0,1,.84-1.29c.31-.38.61-.73.84-1a1.75,1.75,0,0,0,.37-.94,2.22,2.22,0,0,0,.38,1c.23.37.53.78.83,1.23a9.76,9.76,0,0,1,.83,1.45,4.29,4.29,0,0,1,.37,1.68c0,.22,0,.43,0,.63s0,.38,0,.56l0,.5c0,.15,0,.3,0,.44a6.62,6.62,0,0,1,.48,1,9.12,9.12,0,0,1,.36,1.15,9.71,9.71,0,0,1,.23,1.26,10,10,0,0,1,.08,1.36,5.41,5.41,0,0,1-.53,2.31A10.38,10.38,0,0,1,175.81,93c-.44.57-.87,1.09-1.2,1.58a2.59,2.59,0,0,0-.55,1.39m33.7,2a2.81,2.81,0,0,0-.45-1.31c-.26-.47-.62-1-1-1.55a11.73,11.73,0,0,1-1-1.86,6.11,6.11,0,0,1-.44-2.19,12.07,12.07,0,0,1,.06-1.23c.05-.39.11-.76.19-1.11a7.73,7.73,0,0,1,.3-1,7.12,7.12,0,0,1,.39-.83c0-.13,0-.27,0-.42s0-.3,0-.46,0-.34,0-.52,0-.37,0-.57a3.77,3.77,0,0,1,.31-1.46,6.55,6.55,0,0,1,.68-1.16c.24-.34.49-.66.67-1a1.67,1.67,0,0,0,.31-.85,2.06,2.06,0,0,0,.3.92c.18.34.43.7.67,1.1a8.33,8.33,0,0,1,.66,1.3,4.09,4.09,0,0,1,.3,1.5v.56c0,.18,0,.35,0,.5l0,.45c0,.15,0,.28,0,.4a6.24,6.24,0,0,1,.38.9,7.59,7.59,0,0,1,.29,1,10.42,10.42,0,0,1,.19,1.14,12,12,0,0,1,.06,1.22,5.32,5.32,0,0,1-.43,2.08,9.61,9.61,0,0,1-1,1.7c-.35.51-.7,1-1,1.42a2.46,2.46,0,0,0-.44,1.25M117.7,57a1.94,1.94,0,0,1-.51-.14,2.26,2.26,0,0,1-.5-.28,3.28,3.28,0,0,1-.46-.39,4.29,4.29,0,0,1-.43-.51l-2.39-3.33a6.21,6.21,0,0,1-.85-1.8,7.24,7.24,0,0,1-.28-2,6.32,6.32,0,0,1,.28-1.92,4.08,4.08,0,0,1,.85-1.5l2.39-2.52a2.11,2.11,0,0,1,.43-.37,2.25,2.25,0,0,1,.46-.24,2.11,2.11,0,0,1,.5-.1,2.19,2.19,0,0,1,.51,0L143,46.73,149.53,48a1.44,1.44,0,0,1,.43.14,2.57,2.57,0,0,1,.41.26,2.72,2.72,0,0,1,.39.37,3.38,3.38,0,0,1,.35.47l1.95,3a5.6,5.6,0,0,1,.68,1.6,7.34,7.34,0,0,1,.23,1.8,6.33,6.33,0,0,1-.23,1.72,3.8,3.8,0,0,1-.68,1.38l-1.95,2.36a1.93,1.93,0,0,1-.35.35,1.58,1.58,0,0,1-.39.24,1.48,1.48,0,0,1-.41.12,1.24,1.24,0,0,1-.43,0l-6.49-1L117.7,57m43,6.51a1.52,1.52,0,0,1-.4-.12,2.06,2.06,0,0,1-.39-.24,2.33,2.33,0,0,1-.37-.34,3.31,3.31,0,0,1-.34-.45l-1.87-2.92a5.34,5.34,0,0,1-.67-1.58,7.06,7.06,0,0,1-.23-1.78,6.31,6.31,0,0,1,.23-1.71A3.72,3.72,0,0,1,157.3,53l1.87-2.28a2.1,2.1,0,0,1,.34-.33,1.29,1.29,0,0,1,.37-.22,1.43,1.43,0,0,1,.39-.11,1.35,1.35,0,0,1,.4,0l20.16,3.84,5.2,1a1.48,1.48,0,0,1,.35.13,1.36,1.36,0,0,1,.33.22,2,2,0,0,1,.32.33,2.78,2.78,0,0,1,.28.42l1.57,2.69a5.32,5.32,0,0,1,.55,1.43,7.22,7.22,0,0,1,.18,1.61,6.46,6.46,0,0,1-.18,1.55,3.71,3.71,0,0,1-.55,1.24l-1.57,2.15A2.21,2.21,0,0,1,187,67a1.66,1.66,0,0,1-.32.22,1.28,1.28,0,0,1-.33.11,1,1,0,0,1-.35,0l-5.2-.79-20.16-3m34.75,5.26a1,1,0,0,1-.33-.1,1.41,1.41,0,0,1-.31-.21,1.7,1.7,0,0,1-.3-.3,2.33,2.33,0,0,1-.27-.4l-1.52-2.59a5.36,5.36,0,0,1-.53-1.41,7.07,7.07,0,0,1-.18-1.6,6.29,6.29,0,0,1,.18-1.53,3.75,3.75,0,0,1,.53-1.23l1.52-2.08a1.31,1.31,0,0,1,.27-.3,1.17,1.17,0,0,1,.3-.21,1.16,1.16,0,0,1,.64-.09l16.37,3.12,4.26.82a.79.79,0,0,1,.28.1,1.26,1.26,0,0,1,.27.2,1.84,1.84,0,0,1,.26.29,3.32,3.32,0,0,1,.23.37L218.38,64a4.83,4.83,0,0,1,.45,1.28,7.09,7.09,0,0,1,.15,1.46,6.42,6.42,0,0,1-.15,1.41,3.61,3.61,0,0,1-.45,1.13l-1.29,2a1.73,1.73,0,0,1-.23.29,1,1,0,0,1-.26.2.7.7,0,0,1-.27.11.88.88,0,0,1-.28,0l-4.26-.65-16.37-2.48m24.72-36.45L110.07,0V230.7l110.07-32.31v-103l-5.59-.4V85.19l5.59.59V77.7L110.07,63.06v-4L220.14,74.82V59.12L110.07,37.24v-4l110.07,23V32.31"/><path class="cls-2" d="M110.07,87.59l-10.3.73v-13l10.3-1.08V87.59M78.85,89.8,54.46,91.52V80.09l24.39-2.55V89.8M38.09,92.68,18.74,94V83.82l19.35-2V92.68m51.12.79a2.73,2.73,0,0,0-.7-1.56c-.42-.55-1-1.13-1.53-1.77A11.65,11.65,0,0,1,85.46,88a5.47,5.47,0,0,1-.68-2.61,11.11,11.11,0,0,1,.39-3,9.94,9.94,0,0,1,.46-1.3A8.77,8.77,0,0,1,86.24,80c0-.15,0-.32,0-.5s0-.36,0-.56,0-.41,0-.64,0-.45,0-.7a4.28,4.28,0,0,1,.48-1.9,10.38,10.38,0,0,1,1-1.66c.39-.51.77-1,1.06-1.41a2.29,2.29,0,0,0,.49-1.16,1.77,1.77,0,0,0,.48,1c.29.36.68.75,1.07,1.18a7.85,7.85,0,0,1,1.08,1.44A3.77,3.77,0,0,1,92.33,77c0,.26,0,.5,0,.73s0,.44,0,.65,0,.4,0,.59,0,.36,0,.52a7,7,0,0,1,.62,1,8.2,8.2,0,0,1,.47,1.24,8.67,8.67,0,0,1,.3,1.4,10.94,10.94,0,0,1,.11,1.54A6.14,6.14,0,0,1,93,87.46a13.3,13.3,0,0,1-1.56,2.37c-.57.72-1.13,1.38-1.55,2a3.11,3.11,0,0,0-.7,1.65M46.07,96a2.65,2.65,0,0,0-.54-1.39c-.33-.49-.77-1-1.2-1.58a10.38,10.38,0,0,1-1.19-1.88,5.41,5.41,0,0,1-.53-2.31,10,10,0,0,1,.08-1.36,9.71,9.71,0,0,1,.23-1.26,9.12,9.12,0,0,1,.36-1.15,6.62,6.62,0,0,1,.48-1c0-.14,0-.29,0-.44l0-.5c0-.18,0-.37,0-.56s0-.41,0-.63A4.29,4.29,0,0,1,44,80.27a9.76,9.76,0,0,1,.83-1.45c.3-.45.6-.86.83-1.23a2.19,2.19,0,0,0,.37-1,1.77,1.77,0,0,0,.38.94c.23.32.53.67.84,1a7.35,7.35,0,0,1,.84,1.29,3.65,3.65,0,0,1,.38,1.62c0,.22,0,.43,0,.63s0,.4,0,.58,0,.35,0,.52,0,.32,0,.46a6.13,6.13,0,0,1,.48.92,7.1,7.1,0,0,1,.37,1.1,8,8,0,0,1,.24,1.24,12.16,12.16,0,0,1,.08,1.37,5.94,5.94,0,0,1-.56,2.45,11.74,11.74,0,0,1-1.22,2.07c-.44.64-.88,1.22-1.21,1.75A2.92,2.92,0,0,0,46.07,96M12.38,98a2.46,2.46,0,0,0-.44-1.25c-.26-.44-.61-.91-1-1.42a9.61,9.61,0,0,1-1-1.7,5.32,5.32,0,0,1-.43-2.08,12,12,0,0,1,.06-1.22,8.47,8.47,0,0,1,.19-1.14,7.59,7.59,0,0,1,.29-1,6.24,6.24,0,0,1,.38-.9c0-.12,0-.25,0-.4s0-.29,0-.45,0-.32,0-.5,0-.36,0-.56a4.09,4.09,0,0,1,.3-1.5,9.33,9.33,0,0,1,.67-1.3c.24-.4.49-.76.67-1.1a2.06,2.06,0,0,0,.3-.92,1.59,1.59,0,0,0,.31.85c.18.29.43.61.67,1A6.55,6.55,0,0,1,14,83.49,3.77,3.77,0,0,1,14.35,85c0,.2,0,.39,0,.57s0,.35,0,.52,0,.32,0,.46,0,.29,0,.42a7.12,7.12,0,0,1,.39.83,9.75,9.75,0,0,1,.3,1c.08.35.14.72.19,1.11a12.07,12.07,0,0,1,.06,1.23,5.91,5.91,0,0,1-.45,2.19,10.93,10.93,0,0,1-1,1.86c-.36.56-.71,1.08-1,1.55A2.9,2.9,0,0,0,12.38,98m90.06-41L77.09,60.83l-6.48,1a1.24,1.24,0,0,1-.43,0,1.48,1.48,0,0,1-.41-.12,1.58,1.58,0,0,1-.39-.24,2,2,0,0,1-.36-.35l-1.94-2.36a3.64,3.64,0,0,1-.68-1.38,6,6,0,0,1-.23-1.72,6.89,6.89,0,0,1,.23-1.8,5.33,5.33,0,0,1,.68-1.6l1.94-3a3.43,3.43,0,0,1,.36-.47,2.72,2.72,0,0,1,.39-.37,2.57,2.57,0,0,1,.41-.26,1.44,1.44,0,0,1,.43-.14l6.48-1.24,25.35-4.83a2.19,2.19,0,0,1,.51,0,2.11,2.11,0,0,1,.5.1,2.25,2.25,0,0,1,.46.24,2.11,2.11,0,0,1,.43.37l2.38,2.52a3.82,3.82,0,0,1,.85,1.5,6.33,6.33,0,0,1,.29,1.92,7.25,7.25,0,0,1-.29,2,5.73,5.73,0,0,1-.85,1.8l-2.38,3.33a4.29,4.29,0,0,1-.43.51,3.28,3.28,0,0,1-.46.39,2.26,2.26,0,0,1-.5.28,1.94,1.94,0,0,1-.51.14m-43,6.51-20.15,3-5.21.79a1,1,0,0,1-.34,0,1.17,1.17,0,0,1-.33-.11,1.66,1.66,0,0,1-.32-.22,2.21,2.21,0,0,1-.28-.32l-1.57-2.15a3.71,3.71,0,0,1-.55-1.24,6.46,6.46,0,0,1-.18-1.55,7.22,7.22,0,0,1,.18-1.61,5.32,5.32,0,0,1,.55-1.43L32.83,56a2.78,2.78,0,0,1,.28-.42,2,2,0,0,1,.32-.33,1.19,1.19,0,0,1,.33-.22,1.58,1.58,0,0,1,.34-.13l5.21-1,20.15-3.84a1.47,1.47,0,0,1,1.17.31,2.06,2.06,0,0,1,.33.33L62.84,53a3.72,3.72,0,0,1,.67,1.35,6.31,6.31,0,0,1,.23,1.71,7.06,7.06,0,0,1-.23,1.78,5.34,5.34,0,0,1-.67,1.58L61,62.35a3.27,3.27,0,0,1-.33.45,2.86,2.86,0,0,1-.37.34,2.06,2.06,0,0,1-.39.24,1.48,1.48,0,0,1-.41.12M24.72,68.76,8.35,71.24l-4.26.65a.88.88,0,0,1-.28,0,.64.64,0,0,1-.27-.11,1,1,0,0,1-.26-.2A2.47,2.47,0,0,1,3,71.28l-1.28-2a3.61,3.61,0,0,1-.45-1.13,6.42,6.42,0,0,1-.15-1.41,7.09,7.09,0,0,1,.15-1.46A4.83,4.83,0,0,1,1.76,64L3,61.61c.08-.13.16-.26.24-.37A1.84,1.84,0,0,1,3.54,61a1.05,1.05,0,0,1,.27-.2.79.79,0,0,1,.28-.1l4.26-.82,16.37-3.12a1.16,1.16,0,0,1,.64.09,1.37,1.37,0,0,1,.3.21,1.59,1.59,0,0,1,.27.3l1.51,2.08A3.56,3.56,0,0,1,28,60.62a6.29,6.29,0,0,1,.18,1.53,7.07,7.07,0,0,1-.18,1.6,5,5,0,0,1-.54,1.41l-1.51,2.59a3.1,3.1,0,0,1-.27.4,2.12,2.12,0,0,1-.3.3,1.41,1.41,0,0,1-.31.21,1,1,0,0,1-.33.1M0,32.31V56.23l110.07-23v4L0,59.12v15.7L110.07,59.05v4L0,77.7v8.08l5.59-.59V95L0,95.37v103L110.07,230.7V0L0,32.31"/></svg>