<?xml version="1.0" encoding="iso-8859-1"?>
<!-- Generator: Adobe Illustrator 19.0.0, SVG Export Plug-In . SVG Version: 6.00 Build 0)  -->
<svg version="1.1" id="Capa_1" xmlns="http://www.w3.org/2000/svg" xmlns:xlink="http://www.w3.org/1999/xlink" x="0px" y="0px"
	 viewBox="0 0 512 512" style="enable-background:new 0 0 512 512;" xml:space="preserve">
<circle style="fill:#80D5FF;" cx="256.678" cy="256" r="255.322"/>
<path style="fill:#B4E7FC;" d="M390.322,38.422c-0.24,6.743-5.767,12.14-12.569,12.14c-9.927,0-70.08,0-78.778,0
	c-6.955,0-12.592,5.638-12.592,12.592s5.637,12.592,12.592,12.592c14.084,0,56.53,0,61.269,0c6.954,0,12.592,5.637,12.592,12.592
	c0,6.954-5.637,12.592-12.592,12.592h-5.303c-6.954,0-12.592,5.638-12.592,12.592s5.637,12.592,12.592,12.592h121.576
	C455.339,90.344,425.69,60.192,390.322,38.422z"/>
<path style="fill:#647892;" d="M185.434,421.177c-59.041,34.087-134.806,13.786-168.893-45.255S2.754,241.117,61.795,207.029
	s134.806-13.786,168.893,45.255S244.475,387.09,185.434,421.177z M81.555,241.253c-40.169,23.192-53.982,74.739-30.789,114.909
	c23.192,40.17,74.739,53.982,114.909,30.79c40.17-23.192,53.982-74.74,30.79-114.91C173.272,231.873,121.725,218.061,81.555,241.253
	z"/>
<path style="fill:#4D6682;" d="M48.349,351.635c-27.467-52.427-13.503-116.547,31.379-153.122c-6.103,2.321-12.1,5.149-17.932,8.516
	C2.754,241.117-17.547,316.881,16.54,375.923c37.813,65.494,125.903,82.332,185.235,33.983
	C141.682,432.76,74.816,404.631,48.349,351.635z"/>
<path style="fill:#ABE84B;" d="M33.123,289.857c13.417-50.078,64.648-79.666,114.738-66.246
	c81.005,21.704,94.097,130.389,22.614,171.658C97.927,437.154,11.695,369.824,33.123,289.857z M86.356,249.57L86.356,249.57
	c-17.207,9.934-29.524,26.006-34.682,45.257c-17.07,63.709,51.664,117.023,109.198,83.809
	c56.634-32.697,46.717-119.14-17.981-136.473C123.517,236.973,103.452,239.699,86.356,249.57z M81.555,241.254h0.012H81.555z"/>
<path style="fill:#647892;" d="M510.928,232.665c-1.21-13.35-3.441-26.404-6.626-39.08
	c-102.264,23.39-130.598,156.788-46.376,219.55c8.123-10.388,15.449-21.428,21.909-33.017
	C425.28,337.168,443.792,249.96,510.928,232.665z"/>
<path style="fill:#4D6682;" d="M488.049,198.513c-91.278,34.717-107.782,156.75-30.123,214.621
	c7.721-9.875,14.725-20.335,20.947-31.299C424.524,327.622,434.042,242.524,488.049,198.513z"/>
<path style="fill:#ABE84B;" d="M511.638,242.393c-0.343-6.537-0.933-13.007-1.758-19.405c-32.3,7.841-59.237,32.542-68.434,66.869
	c-10.273,38.336,4.674,76.627,33.519,98.653c3.365-5.532,6.521-11.205,9.467-17.003
	C438.168,333.306,454.074,258.743,511.638,242.393z"/>
<path style="fill:#EFEFEF;" d="M282.5,214.759l5.168-5.236c0.953-0.966,2.014-1.761,3.134-2.42l-7.962-7.859
	c-2.988-2.949-7.801-2.918-10.751,0.07c-2.949,2.988-2.918,7.801,0.07,10.75l7.962,7.859
	C280.765,216.795,281.546,215.725,282.5,214.759z"/>
<path style="fill:#FAC149;" d="M346.445,261.246l-11.459,11.609c-4.206,4.262-11.134,4.307-15.396,0.101l-41.959-41.413
	c-4.262-4.206-4.307-11.134-0.101-15.396l11.459-11.609c4.206-4.262,11.134-4.307,15.396-0.101l41.958,41.413
	C350.606,250.056,350.652,256.985,346.445,261.246z"/>
<g>
	<path style="fill:#F8A748;" d="M335.025,260.887l-45.527-44.936c-2.326-2.296-3.492-5.339-3.498-8.385l-8.47,8.58
		c-4.206,4.262-4.161,11.19,0.101,15.396l41.959,41.413c4.262,4.206,11.19,4.161,15.396-0.101l8.47-8.58
		C340.41,264.309,337.352,263.183,335.025,260.887z"/>
	
		<rect x="292.943" y="218.68" transform="matrix(0.7025 -0.7117 0.7117 0.7025 -77.0528 293.0506)" style="fill:#F8A748;" width="38.089" height="40.014"/>
</g>
<rect x="295.733" y="225.34" transform="matrix(-0.7025 0.7117 -0.7117 -0.7025 694.6359 200.3154)" style="fill:#F2933D;" width="19.433" height="40.014"/>
<circle style="fill:#ABE84B;" cx="123.612" cy="314.106" r="31.436"/>
<circle style="fill:#DDDDDD;" cx="368.851" cy="330.133" r="33.042"/>
<path style="fill:#CECCCA;" d="M364.358,297.391c-23.213,3.178-35.859,28.942-24.126,49.263
	c11.722,20.302,40.353,22.275,54.727,3.738C372.024,343.967,358.461,320.447,364.358,297.391z"/>
<g>
	<path style="fill:#EFEFEF;" d="M200.759,155.832c-3.894-3.836-10.158-3.789-13.992,0.106c-3.835,3.892-3.787,10.157,0.106,13.991
		l149.063,146.832c1.927,1.899,4.435,2.845,6.943,2.845c2.557,0,5.113-0.985,7.049-2.951c3.835-3.892,3.787-10.157-0.106-13.991
		L200.759,155.832z"/>
	<path style="fill:#EFEFEF;" d="M506.676,308.086l-105.913,12.218c-5.429,0.626-9.321,5.533-8.695,10.962
		c0.627,5.444,5.556,9.325,10.963,8.695l98.479-11.359C503.503,321.872,505.236,315.033,506.676,308.086z"/>
	<path style="fill:#EFEFEF;" d="M431.746,141.873c1.441-5.272-1.662-10.713-6.933-12.156c-5.272-1.437-10.712,1.664-12.155,6.933
		l-23.264,85.035L208.93,124.482c-4.81-2.593-10.811-0.792-13.402,4.019c-2.591,4.81-0.792,10.811,4.019,13.402l184.489,99.371
		l-14.554,53.199c-1.441,5.271,1.662,10.712,6.933,12.155c0.874,0.238,1.752,0.353,2.616,0.353c4.347,0,8.335-2.889,9.538-7.286
		l25.228-92.213l93.964,95.025c1.497-8.135,2.604-16.407,3.311-24.794l-91.245-92.275L431.746,141.873z"/>
</g>
<path style="fill:#647892;" d="M177.533,87.767l23.943,23.425l-4.878,13.895l19.776,3.405l5.858-16.689
	c1.273-3.626,0.33-7.663-2.417-10.351l-23.898-23.38"/>
<path style="fill:#EFEFEF;" d="M196.598,125.087l-17.011,48.455l-63.506,133.433l-6.638,3.544c-4.821,2.572-6.643,8.566-4.07,13.386
	c2.567,4.811,8.556,6.649,13.387,4.07c7.638-4.532,11.584-4.921,13.788-9.554c68.646-144.277,65.202-136.878,65.536-137.826
	l18.291-52.104L196.598,125.087z"/>
<path style="fill:#647892;" d="M480.019,121.253c-2.683-7.676-9.712-12.634-17.909-12.634c-14.894,0-26.895,0-54.72,0
	c-7.009,0.778-19.676-3.008-30.067,7.711c-3.804,3.923-3.706,10.186,0.216,13.991c3.639,3.528,9.288,3.692,13.123,0.57
	c0.4-0.392,1.351-1.278,2.074-1.697c7.702-5.476,13.377-0.786,13.377-0.786c10.718,6.822,15.625,30.141,41.407,30.137
	c7.591,0,15.179-2.541,21.417-7.686l0.185-0.155C479.182,142.644,483.46,131.095,480.019,121.253z"/>
<path style="fill:#EFEFEF;" d="M390.322,367.319c-20.505,11.839-46.819,4.787-58.657-15.718
	c-11.839-20.505-4.787-46.818,15.717-58.657c20.506-11.839,46.819-4.788,58.657,15.716
	C417.877,329.167,410.826,355.481,390.322,367.319z M357.275,310.082c-11.056,6.383-14.858,20.57-8.474,31.626
	c6.383,11.057,20.571,14.858,31.627,8.474c11.056-6.383,14.858-20.57,8.473-31.627C382.519,307.5,368.331,303.698,357.275,310.082z"
	/>
<path style="fill:#DDDDDD;" d="M385.297,346.396c-10.906,11.036-28.986,8.32-36.496-4.688c-7.514-13.015-0.813-30.025,14.188-33.95
	c0.086-7.179,1.929-14.247,5.368-20.545c-32.539,0.32-53.158,35.872-36.694,64.388c16.455,28.501,57.552,28.457,74.109,0.418
	C398.601,351.849,391.556,349.911,385.297,346.396z"/>
<path style="fill:#647892;" d="M373.037,321.166c-4.949-2.306-10.838-0.173-13.151,4.778l-30.003,64.245l-8.602-4.348
	c-4.874-2.465-10.827-0.509-13.293,4.366c-2.465,4.877-0.511,10.829,4.366,13.294l33.3,16.832c1.431,0.724,2.955,1.067,4.455,1.067
	c3.613,0,7.096-1.988,8.838-5.433c2.465-4.877,0.511-10.829-4.366-13.294l-7.028-3.554l30.264-64.803
	C380.129,329.367,377.989,323.479,373.037,321.166z"/>
<path style="fill:#4D6682;" d="M465.829,143.298c-29.717,0.004-34.789-27.297-47.741-34.679c-3.298,0-6.841,0-10.697,0
	c-7.008,0.778-19.676-3.008-30.067,7.711c-3.804,3.923-3.706,10.186,0.216,13.991c3.639,3.528,9.288,3.692,13.123,0.57
	c0.4-0.392,1.351-1.278,2.074-1.697c7.702-5.476,13.377-0.786,13.377-0.786c10.718,6.822,15.625,30.141,41.407,30.137
	c7.591,0,15.179-2.541,21.417-7.686l0.185-0.155c3.406-2.729,6.13-5.861,8.135-9.188
	C473.538,142.684,469.688,143.298,465.829,143.298z"/>
<circle style="fill:#647892;" cx="177.529" cy="73.61" r="20.779"/>
<path style="fill:#4D6682;" d="M194.343,85.08c-11.476,0-20.779-9.303-20.779-20.779c0-4.231,1.272-8.161,3.443-11.444
	c-11.23,0.281-20.253,9.454-20.253,20.752c0,11.476,9.303,20.779,20.779,20.779c7.246,0,13.617-3.713,17.336-9.335
	C194.692,85.058,194.521,85.08,194.343,85.08z"/>
<g>
	<path style="fill:#CECCCA;" d="M263.15,259.697c-3.774-3.726-3.814-9.805-0.089-13.58l19.293-19.547
		c3.724-3.774,9.805-3.816,13.58-0.089c3.774,3.726,3.814,9.805,0.089,13.58l-19.294,19.547
		C273.011,263.378,266.931,263.428,263.15,259.697z"/>
	<path style="fill:#CECCCA;" d="M291.74,286.704c-3.717-3.782-3.663-9.863,0.121-13.58l19.6-19.256
		c3.783-3.715,9.864-3.662,13.58,0.122c3.717,3.782,3.663,9.863-0.121,13.58l-19.6,19.256
		C301.537,290.539,295.458,290.489,291.74,286.704z"/>
</g>
<path style="fill:#EFEFEF;" d="M77.345,437.717c46.107,45.505,109.435,73.604,179.334,73.604s133.227-28.098,179.334-73.604H77.345z
	"/>
<path style="fill:#DDDDDD;" d="M227.53,437.717H77.345c39.051,38.543,90.46,64.59,147.748,71.662
	C199.762,493.331,201.088,452.009,227.53,437.717z"/>
<path style="fill:#B4E7FC;" d="M147.699,110.704c-8.698,0-44.915,0-54.841,0c-6.955,0-12.592-5.637-12.592-12.592
	c0-6.955,5.637-12.592,12.592-12.592h19.566c6.955,0,12.592-5.638,12.592-12.592s-5.637-12.592-12.592-12.592H92.666
	c-24.964,20.947-45.855,46.584-61.331,75.549c24.742,0,91.581,0,116.364,0c6.955,0,12.592-5.638,12.592-12.592
	C160.291,116.342,154.653,110.704,147.699,110.704z"/>
<g>
</g>
<g>
</g>
<g>
</g>
<g>
</g>
<g>
</g>
<g>
</g>
<g>
</g>
<g>
</g>
<g>
</g>
<g>
</g>
<g>
</g>
<g>
</g>
<g>
</g>
<g>
</g>
<g>
</g>
</svg>
