<?xml version="1.0" encoding="iso-8859-1"?>
<!-- Generator: Adobe Illustrator 19.0.0, SVG Export Plug-In . SVG Version: 6.00 Build 0)  -->
<svg xmlns="http://www.w3.org/2000/svg" xmlns:xlink="http://www.w3.org/1999/xlink" version="1.1" id="Layer_1" x="0px" y="0px" viewBox="0 0 490 490" style="enable-background:new 0 0 490 490;" xml:space="preserve" width="512" height="512">
<g>
	<path style="fill:#FFE05C;" d="M490,245c0,54.19-17.59,104.28-47.39,144.85c-5.11,6.96-10.57,13.63-16.37,20   C381.44,459.09,316.83,490,245,490c-52.84,0-101.77-16.73-141.79-45.18c-14.38-10.22-27.61-21.95-39.45-34.97   c-0.32-0.35-0.64-0.7-0.95-1.05c-24.56-27.29-43.08-60.15-53.43-96.44C3.27,290.96,0,268.36,0,245s3.27-45.96,9.38-67.36   c10.35-36.29,28.87-69.14,53.43-96.44c0.32-0.35,0.63-0.7,0.96-1.05c5.99-6.6,12.35-12.87,19.04-18.78   c5.84-5.16,11.93-10.05,18.25-14.65c10.28-7.48,21.17-14.18,32.58-20C167.05,9.63,204.9,0,245,0s77.95,9.63,111.36,26.72   c11.41,5.82,22.3,12.52,32.58,20C450.18,91.26,490,163.48,490,245z"/>
	<path style="fill:#BCE6F5;" d="M490,245c0,54.19-17.59,104.28-47.39,144.85c-5.11,6.96-10.57,13.63-16.37,20H62.81V26.72h293.55   c11.41,5.82,22.3,12.52,32.58,20C450.18,91.26,490,163.48,490,245z"/>
	<rect x="62.813" y="26.721" style="fill:#83BDD6;" width="74.28" height="383.13"/>
	<path style="fill:#44CC92;" d="M490,245c0,54.19-17.59,104.28-47.39,144.85H82.81V46.72h306.13c33.64,24.46,60.81,57.28,78.48,95.4   c9.8,21.17,16.68,43.96,20.09,67.87C489.15,221.42,490,233.11,490,245z"/>
	<rect x="82.81" y="46.72" style="fill:#55D485;" width="54.28" height="343.13"/>
	<path style="fill:#BCE6F5;" d="M116.24,80.15v329.7c0,13.38-4.91,25.59-13.03,34.97c-14.38-10.22-27.61-21.95-39.45-34.97   c-0.32-0.35-0.64-0.7-0.95-1.05c-24.56-27.29-43.08-60.15-53.43-96.44V80.15H116.24z"/>
	<circle style="fill:#83BDD6;" cx="62.813" cy="80.151" r="53.43"/>
	<circle style="fill:#10995B;" cx="62.813" cy="80.151" r="35.767"/>
	<path style="fill:#55D485;" d="M188.799,108.748c37.813-37.813,131.807-8.643,131.807,64.823s-136.128,146.932-153.414,88.591   S150.986,146.561,188.799,108.748z"/>
	<path style="fill:#10995B;" d="M223.535,145.095c22.805-22.805,79.493-5.213,79.493,39.095s-82.099,88.615-92.525,53.43   S200.729,167.9,223.535,145.095z"/>
	<path style="fill:#0B8249;" d="M228.796,156.394c15.001-15.001,52.29-3.429,52.29,25.716s-54.004,58.291-60.862,35.146   S213.795,171.396,228.796,156.394z"/>
	<path style="fill:#55D485;" d="M467.42,142.12c-11.25-6.32-22.45-15.36-31.47-28.3c-29.97-43.01-130.32,0-122.06,27.75   l-136.52-19.28c23.1-28.51,25.26-57.18,23.28-75.57h188.29C422.58,71.18,449.75,104,467.42,142.12z"/>
	<path style="fill:#55D485;" d="M490,245c0,54.19-17.59,104.28-47.39,144.85H203.99c39.09,0,82.1-4.97,82.1-44.07   c0-39.09,16.94-95.13,82.1-80.79c65.15,14.33,88.61,9.12,99.69-20.2c4.96-13.11,12.64-25.32,19.63-34.8   C489.15,221.42,490,233.11,490,245z"/>
	<path style="fill:#10995B;" d="M313.453,353.601c-6.301-23.945,26.75-79.492,101.647-52.127   c74.897,27.365,23.457,76.887-10.425,76.887S319.969,378.361,313.453,353.601z"/>
	<path style="fill:#0B8249;" d="M364.624,339.448c7.293-15.316,24.924-22.747,40.965-17.229   c12.411,4.269,22.543,11.961,22.543,19.654c0,14.335-80.796,33.882-67.765,6.516L364.624,339.448z"/>
	<g>
		<path style="fill:#F75454;" d="M394.524,286.002l82.562-143.001C513.779,79.445,467.912,0,394.524,0h0    c-73.388,0-119.255,79.445-82.561,143.001L394.524,286.002z"/>
		<path style="fill:#BCE6F5;" d="M444.189,95.33c0,23.39-16.17,43-37.94,48.27c-3.76,0.92-7.69,1.4-11.73,1.4    c-27.42,0-49.66-22.24-49.66-49.67c0-27.42,22.24-49.66,49.66-49.66c4.04,0,7.97,0.48,11.73,1.4    C428.019,52.34,444.189,71.95,444.189,95.33z"/>
		<path style="fill:#FFFFFF;" d="M444.189,95.33c0,23.39-16.17,43-37.94,48.27c-21.77-5.27-37.93-24.88-37.93-48.27    c0-23.38,16.16-42.99,37.93-48.26C428.019,52.34,444.189,71.95,444.189,95.33z"/>
	</g>
</g>















</svg>
