<svg xmlns="http://www.w3.org/2000/svg" width="655.359" height="655.359" fill-rule="evenodd" clip-rule="evenodd" image-rendering="optimizeQuality" shape-rendering="geometricPrecision" text-rendering="geometricPrecision" viewBox="0 0 6.827 6.827"><path d="M3.41227 3.83503l.047689-.00487795 0 .00497244c.0622126.00238189.125283.0137441.183114.036185.000511811.000200787.00102362.000401575.0015315.000606299l.104295.0419882-.335559.129339-.305886-.117902.0952244-.0438583c.00487008-.00224803.00978346-.00439764.0147323-.00646457.0607795-.0253346.127815-.0379843.193492-.039937.000452756-.000019685.000913386-.0000314961.00136614-.0000511811zM5.74092 4.68359c-.000216535.00343307-.000023622.00748031-.000110236.0106457l-.00658268.243598-1.74913-.674209.915343-.364118.0203661.0268228c.0673425.0887126.14389.172224.229236.243917.126476.106248.277559.179945.438366.217075.0379724.00876772.0770433.036311.10185.0655354.0541339.0637638.0627598.148362.0509961.228437l-.000338583.00229528zM2.96204 4.31154l.332409.132236-1.99307.792831-.00691339.000468504c-.0580669.00396063-.11613-.00777165-.158563-.0501063-.0295827-.0295157-.0457205-.0684331-.0521299-.109228l-.00552362-.035185.0331732-.0129488c.61098-.238555 1.22243-.475921 1.83444-.711827l.016185-.00624016zM1.08576 4.68359l-.000334646-.00229528c-.0117638-.0800748-.0031378-.164673.0509921-.228437.024811-.0292244.063878-.0567677.101854-.0655354.160803-.0371299.31189-.110827.438366-.217075.0853425-.0716929.161894-.155205.229236-.243917l.0203622-.0268228.915343.364118-.105457.0407047c-.528661.204031-1.05697.408976-1.58487.614957l-.0586811.0228937-.00669685-.247945c-.0000866142-.00316535.000106299-.0072126-.000114173-.0106457zM2.93711 4.20704l-1.00931-.4015c-.000952756-.000377953-.00190551-.000755906-.00285827-.0011378l-.505028-.200898c-.0696417-.022122-.152858-.0654449-.209728-.109713-.0581102-.0452402-.108862-.105606-.117213-.181311l-.00798031-.0723701 1.94616.750154c.00241732.000933071.00483465.00186614.00725591.00279921l.352512.135878c.0044252.00170472.00885039.00340551.0132795.00511417l.444264.171555c.00235827.000822835.00455906.00144882.00690945.00235433l1.89306.729685-.00470866.0347008c-.00561417.0413425-.0210039.081252-.0501654.111799-.0424882.0445079-.101795.0569843-.161315.0529252l-.00691732-.000468504-2.0883-.830709c-.00495276-.00197244-.00990157-.00394882-.0148583-.00591339l-.485043-.192945zM5.49808 3.33401c.00162992-.000625984.00325984-.00125984.00488976-.00188583l.238736-.0920197-.00798031.0723701c-.00158661.0144094-.00477953.0285669-.00941339.0422913-.0192638.0570079-.0620472.103091-.108965.13915-.039626.0304528-.0842913.0556063-.129535.0767087-.0257126.0119921-.0509252.0217283-.0771417.0321575l-.506067.201299c-.00151575.000602362-.00302362.00120472-.00453543.00180709l-1.03373.411185-.32861-.126665.285094-.10989c.00353937-.00136614.00708268-.00272835.010622-.00409055l1.66664-.642417zM3.47883 3.69431c.030437-.105299.0836299-.198366.158453-.27839.147047-.157272.359291-.245437.563283-.301217.108228-.0295945.218563-.0512992.329181-.0697323.0968661-.0161457.194102-.0293819.291031-.0449094.0620827-.00994094.131437-.0209016.191142-.0406024.0109606-.00361811.0573583-.0206732.0610276-.0336102.0000826772-.000283465.0000984252-.000586614.0000984252-.00088189l0-1.74652.384732.272803-.0167126 1.81039-1.61578.622811-.0201929-.018063c-.0375197-.0335709-.0830984-.0589921-.129819-.0772835-.0507283-.0198661-.104819-.0323346-.158902-.0384882l-.0521102-.00592913.0145669-.0503819zM3.3112 3.75671c-.0435354.00769291-.0867008.0196929-.127535.0367165-.047315.0197244-.0933031.0471614-.129969.0832835l-.0203583.0200551-1.66347-.641197-.00115748-1.80418.384929-.272953 0 1.74721c0 .026563.0229685.0443465.0484291.0441929.0368661-.000216535.0757441.00266142.112484.00540945.0713425.00533071.142642.013185.213488.0231024.194602.0272441.392701.0708189.577197.138929.270354.0997992.553154.270055.640697.56313l.0142323.0476496-.0489685.00864961z"/><path d="M3.36937 2.03416l-.000216535 1.47895-.0783189-.0940748c-.303287-.364303-.957819-.500843-1.40743-.532827l-.0411535-.0029252 0-1.74259.0484134.00451575c.415677.0387874.967559.144992 1.27824.451744.0741142.0731732.136634.160673.172453.259012.0143504.0393819.0277008.0905157.0280197.132988l.000334646.0452126-.000334646-.00000393701zM3.4573 1.99849l0-.00895276c.0000905512-.0416457.0133307-.0927087.0272244-.131346.0353701-.0983543.0975315-.185988.171319-.259291.310346-.308299.863906-.41485 1.28018-.453697l.0484094-.00451575 0 1.7427-.0410591.00300787c-.449626.0329409-1.103.170346-1.40811.53239l-.0781811.0927717.000220472-1.51301c0-.000019685 0-.0000433071 0-.0000629921zM1.03219 5.33159l4.76228 0c.0978268 0 .177193.0793661.177193.177193 0 .0978268-.0793661.177189-.177193.177189l-4.76228 0c-.0978268 0-.177193-.0793622-.177193-.177189 0-.0978268.0793661-.177193.177193-.177193z"/><rect width="6.827" height="6.827" fill="none"/></svg>