<?xml version="1.0" encoding="iso-8859-1"?>
<!-- Generator: Adobe Illustrator 19.0.0, SVG Export Plug-In . SVG Version: 6.00 Build 0)  -->
<svg xmlns="http://www.w3.org/2000/svg" xmlns:xlink="http://www.w3.org/1999/xlink" version="1.1" id="Layer_1" x="0px" y="0px" viewBox="0 0 493.548 493.548" style="enable-background:new 0 0 493.548 493.548;" xml:space="preserve">
<g>
	<g>
		<path d="M490.871,143.468L348.527,1.204C347.819,0.468,346.835,0,345.811,0h-201.12c-1.02,0-2,0.468-2.728,1.204L1.643,143.468    c-0.72,0.704,0.764,1.728,0.764,2.752v201.116c0,1.032-1.484,2.008-0.764,2.728l141.264,142.288c0.728,0.72,0.76,1.196,1.78,1.196    h201.12c1.024,0,2.008-0.476,2.716-1.196l142.348-142.248c0.708-0.72,1.232-1.736,1.232-2.764V146.22    C492.103,145.196,491.579,144.172,490.871,143.468z M361.003,254.64c0,4.144-3.708,7.568-7.848,7.568H136.887    c-4.156,0-7.228-3.42-7.228-7.568v-15.716c0-4.148,3.072-7.564,7.228-7.564h216.268c4.14,0,6.908,3.416,6.908,7.564l0.94,0.148    V254.64z"/>
	</g>
</g>
<g>
</g>
<g>
</g>
<g>
</g>
<g>
</g>
<g>
</g>
<g>
</g>
<g>
</g>
<g>
</g>
<g>
</g>
<g>
</g>
<g>
</g>
<g>
</g>
<g>
</g>
<g>
</g>
<g>
</g>
</svg>
