<?xml version="1.0" encoding="iso-8859-1"?>
<!-- Generator: Adobe Illustrator 19.0.0, SVG Export Plug-In . SVG Version: 6.00 Build 0)  -->
<svg xmlns="http://www.w3.org/2000/svg" xmlns:xlink="http://www.w3.org/1999/xlink" version="1.1" id="Layer_1" x="0px" y="0px" viewBox="0 0 493.304 493.304" style="enable-background:new 0 0 493.304 493.304;" xml:space="preserve">
<g>
	<g>
		<path d="M254.312,0h-15.728c-8.404,0-15.196,7.128-15.196,15.524v216.28c0,8.4,8.452,15.128,16.852,15.128l-1.428-0.14h15.5    c8.384,0,15.36-6.588,15.36-14.988V15.524C269.672,7.128,262.696,0,254.312,0z"/>
	</g>
</g>
<g>
	<g>
		<path d="M301.6,84.728c-1.168-0.3-2.428-0.08-3.388,0.656c-0.96,0.712-1.56,1.868-1.56,3.056v40.392    c0,1.624,1.088,3.096,2.644,3.628C364.5,154.924,408.32,216.356,408.32,285.312c0,89.152-72.516,161.66-161.648,161.66    c-89.14,0-161.656-72.508-161.656-161.66c0-68.956,43.696-130.388,108.9-152.852c1.568-0.532,2.492-2.004,2.492-3.628V88.436    c0-1.188-0.444-2.344-1.412-3.056c-0.948-0.736-2.132-0.956-3.296-0.656c-90.12,24.616-153.044,107.1-153.044,200.584    c0,114.684,93.316,207.996,208.008,207.996c114.684,0,207.984-93.312,207.984-207.996    C454.648,191.828,391.712,109.344,301.6,84.728z"/>
	</g>
</g>
<g>
</g>
<g>
</g>
<g>
</g>
<g>
</g>
<g>
</g>
<g>
</g>
<g>
</g>
<g>
</g>
<g>
</g>
<g>
</g>
<g>
</g>
<g>
</g>
<g>
</g>
<g>
</g>
<g>
</g>
</svg>
